<?xml version="1.0" encoding="utf-8"?>
<!-- Generator: Adobe Illustrator 16.0.0, SVG Export Plug-In . SVG Version: 6.00 Build 0)  -->
<!DOCTYPE svg PUBLIC "-//W3C//DTD SVG 1.1//EN" "http://www.w3.org/Graphics/SVG/1.1/DTD/svg11.dtd">
<svg version="1.1" id="Layer_1" xmlns="http://www.w3.org/2000/svg" xmlns:xlink="http://www.w3.org/1999/xlink" x="0px" y="0px"
	 width="103px" height="102px" viewBox="0 0 103 102" enable-background="new 0 0 103 102" xml:space="preserve">
<g>
	<g>
		<path fill="#9C9FAB" d="M48.117,27.513c-0.405-3.717-3.604-5.409-6.405-5.409h-0.016l-0.031,0l-27.279,0h-0.068l-0.067,0.004
			c-4.5,0.305-5.935,3.624-6.064,5.336L8.181,27.52v0.075v5.119v0.308v1.692v0.308v47.263v0.367v1.633v0.365v4.949v0.076
			l0.006,0.074c0.129,1.713,1.563,5.031,6.064,5.336l0.067,0.004h0.067h27.311c2.815,0,6.014-1.691,6.419-5.408l0.012-0.107v-0.109
			v-4.852v-0.328V82.61v-0.326V35.021v-0.308v-1.692v-0.308v-4.984V27.62L48.117,27.513z M10.181,27.595c0,0,0.244-3.223,4.205-3.49
			h27.311c0,0,0.005,0,0.015,0c0.262,0,4.028,0.062,4.417,3.625v4.984H10.181V27.595z M46.128,35.021v47.263H10.181V35.021H46.128z
			 M46.128,89.464c-0.389,3.563-4.152,3.625-4.417,3.625c-0.01,0-0.015,0-0.015,0H14.386c-3.961-0.268-4.205-3.49-4.205-3.49v-4.949
			l35.947-0.037V89.464z"/>
		<path fill="#9C9FAB" d="M34.457,26.784H22.015c-0.78,0-1.412,0.633-1.412,1.412s0.632,1.412,1.412,1.412h12.442
			c0.78,0,1.412-0.633,1.412-1.412S35.236,26.784,34.457,26.784z"/>
		<circle fill="#9C9FAB" cx="28.159" cy="88.545" r="2.634"/>
	</g>
	<g>
		<polygon fill="#9C9FAB" points="87.398,80.403 47.91,80.403 47.91,82.403 87.398,82.403 89.398,82.403 89.398,80.403 
			89.398,17.406 89.398,15.406 87.398,15.406 37.383,15.406 35.383,15.406 35.383,17.406 35.383,22.303 37.383,22.303 
			37.383,17.406 87.398,17.406 		"/>
		<path fill="#9C9FAB" d="M86.972,7.009H37.81c-4.229,0-7.669,3.44-7.669,7.669v7.625h2v-7.625c0-3.131,2.538-5.669,5.669-5.669
			h49.162c3.131,0,5.669,2.538,5.669,5.669V86.59c0,3.131-2.538,5.669-5.669,5.669H45.811c-0.134,0.725-0.407,1.4-0.789,2h41.949
			c4.229,0,7.669-3.44,7.669-7.669V14.678C94.641,10.449,91.2,7.009,86.972,7.009z"/>
		<circle fill="#9C9FAB" cx="63.208" cy="12.564" r="1.577"/>
		<circle fill="#9C9FAB" cx="63.313" cy="88.146" r="2.875"/>
	</g>
</g>
</svg>
